<svg width="222" height="222" viewBox="0 0 222 222" fill="none" xmlns="http://www.w3.org/2000/svg">
<path fill-rule="evenodd" clip-rule="evenodd" d="M111.632 46.5136C96.219 46.5136 83.7241 59.0085 83.7241 74.4217V130.238C83.7241 135.376 79.5591 139.541 74.4214 139.541C69.2836 139.541 65.1187 135.376 65.1187 130.238V74.4217C65.1187 48.733 85.9435 27.9082 111.632 27.9082C137.321 27.9082 158.146 48.733 158.146 74.4217V130.238C158.146 135.376 153.981 139.541 148.843 139.541C143.705 139.541 139.54 135.376 139.54 130.238V74.4217C139.54 59.0085 127.045 46.5136 111.632 46.5136Z" fill="url(#paint0_linear_116_1511)"/>
<g filter="url(#filter0_b_116_1511)">
<rect x="46.5132" y="83.7241" width="130.238" height="102.33" rx="27.9081" fill="#FF9016" fill-opacity="0.5"/>
<rect x="46.9783" y="84.1893" width="129.308" height="101.399" rx="27.443" stroke="url(#paint1_linear_116_1511)" stroke-width="0.930271"/>
</g>
<g filter="url(#filter1_b_116_1511)">
<rect x="130.238" y="111.633" width="55.8162" height="37.2108" rx="18.6054" transform="rotate(90 130.238 111.633)" fill="url(#paint2_linear_116_1511)"/>
<rect x="129.868" y="112.003" width="55.0762" height="36.4708" rx="18.2354" transform="rotate(90 129.868 112.003)" stroke="url(#paint3_linear_116_1511)" stroke-width="0.74"/>
</g>
<defs>
<filter id="filter0_b_116_1511" x="27.9078" y="65.1187" width="167.449" height="139.54" filterUnits="userSpaceOnUse" color-interpolation-filters="sRGB">
<feFlood flood-opacity="0" result="BackgroundImageFix"/>
<feGaussianBlur in="BackgroundImage" stdDeviation="9.30271"/>
<feComposite in2="SourceAlpha" operator="in" result="effect1_backgroundBlur_116_1511"/>
<feBlend mode="normal" in="SourceGraphic" in2="effect1_backgroundBlur_116_1511" result="shape"/>
</filter>
<filter id="filter1_b_116_1511" x="55.816" y="74.422" width="111.633" height="130.238" filterUnits="userSpaceOnUse" color-interpolation-filters="sRGB">
<feFlood flood-opacity="0" result="BackgroundImageFix"/>
<feGaussianBlur in="BackgroundImage" stdDeviation="18.6054"/>
<feComposite in2="SourceAlpha" operator="in" result="effect1_backgroundBlur_116_1511"/>
<feBlend mode="normal" in="SourceGraphic" in2="effect1_backgroundBlur_116_1511" result="shape"/>
</filter>
<linearGradient id="paint0_linear_116_1511" x1="87.2938" y1="44.8889" x2="205.552" y2="69.0845" gradientUnits="userSpaceOnUse">
<stop stop-color="#FFA019"/>
<stop offset="1" stop-color="#FF5509"/>
</linearGradient>
<linearGradient id="paint1_linear_116_1511" x1="40.0013" y1="91.0334" x2="105.663" y2="218.666" gradientUnits="userSpaceOnUse">
<stop stop-color="white"/>
<stop offset="0.765625" stop-color="white" stop-opacity="0"/>
</linearGradient>
<linearGradient id="paint2_linear_116_1511" x1="183.255" y1="120.695" x2="180.48" y2="155.845" gradientUnits="userSpaceOnUse">
<stop stop-color="#F9FFFC"/>
<stop offset="1" stop-color="#F7FBFF" stop-opacity="0.28"/>
</linearGradient>
<linearGradient id="paint3_linear_116_1511" x1="142.555" y1="157.695" x2="177.705" y2="106.82" gradientUnits="userSpaceOnUse">
<stop stop-color="white"/>
<stop offset="1" stop-color="white" stop-opacity="0"/>
</linearGradient>
</defs>
</svg>
